# 3ds Max Wavefront OBJ Exporter v0.97b - (c)2007 guruware
# File Created: 28.11.2019 09:39:58

mtllib ProtoHaus.mtl

#
# object Box001
#

v  -25.2298 0.0000 27.6431
v  -25.2298 0.0000 -27.6431
v  25.2298 0.0000 -27.6431
v  25.2298 0.0000 27.6431
v  -25.2298 35.3845 27.6431
v  25.2298 35.3845 27.6431
v  25.2298 35.3845 -27.6431
v  -25.2298 35.3845 -27.6431
# 8 vertices

vn -0.5774 -0.5774 0.5774
vn -0.5774 -0.5774 -0.5774
vn 0.5774 -0.5774 -0.5774
vn 0.5774 -0.5774 0.5774
vn -0.5774 0.5774 0.5774
vn 0.5774 0.5774 0.5774
vn 0.5774 0.5774 -0.5774
vn -0.5774 0.5774 -0.5774
# 8 vertex normals

vt 1.0000 0.0000 0.0000
vt 1.0000 1.0000 0.0000
vt 0.0000 1.0000 0.0000
vt 0.0000 0.0000 0.0000
# 4 texture coords

o Box001
g Box001
usemtl wire_028149177
s 2
f 1/1/1 2/2/2 3/3/3 4/4/4 
s 4
f 5/4/5 6/1/6 7/2/7 8/3/8 
s 8
f 1/4/1 4/1/4 6/2/6 5/3/5 
s 16
f 4/4/4 3/1/3 7/2/7 6/3/6 
s 32
f 3/4/3 2/1/2 8/2/8 7/3/7 
s 64
f 2/4/2 1/1/1 5/2/5 8/3/8 
# 6 polygons

#
# object Pyramid001
#

v  0.0000 71.7437 -0.0000
v  -26.9589 34.5431 28.5913
v  26.9589 34.5431 28.5913
v  26.9589 34.5431 -28.5913
v  -26.9589 34.5431 -28.5913
# 5 vertices

vn 0.0000 1.0000 -0.0000
vn -0.4830 0.7261 0.4893
vn 0.4830 0.7261 0.4893
vn 0.4830 0.7261 -0.4893
vn -0.4830 0.7261 -0.4893
# 5 vertex normals

vt 0.5000 1.0000 0.0000
vt 0.0000 0.0000 0.0000
vt 1.0000 0.0000 0.0000
vt 0.0285 0.0000 0.0000
vt 1.0285 0.0000 0.0000
# 5 texture coords

o Pyramid001
g Pyramid001
usemtl wire_153228184
s 4
f 9/5/9 10/6/10 11/7/11 
s 2
f 9/5/9 11/8/11 12/9/12 
s 16
f 9/5/9 12/6/12 13/7/13 
s 32
f 9/5/9 13/8/13 10/9/10 
# 0 polygons - 4 triangles

